<svg xmlns="http://www.w3.org/2000/svg" width="1em" height="1em" fill="none" viewBox="0 0 24 24">
    <path fill="currentColor"
        d="M11.834 2.44a1 1 0 0 1 0 2h-4.79a3 3 0 0 0-3 3v9.58a3 3 0 0 0 3 3h9.58a3 3 0 0 0 3-3v-4.79a1 1 0 0 1 2 0v4.79a5 5 0 0 1-5 5h-9.58a5 5 0 0 1-5-5V7.44a5 5 0 0 1 5-5zm4.723.779a3.03 3.03 0 0 1 4.286 0l.109.113a3.03 3.03 0 0 1 0 4.06l-.109.114-6.976 6.976-.25.23a4 4 0 0 1-.553.39l-.299.16-2.49 1.192c-1.703.815-3.482-.965-2.667-2.667l1.192-2.49c.147-.306.332-.592.55-.85l.23-.25zm2.872 1.414a1.03 1.03 0 0 0-1.458 0l-6.977 6.977c-.16.16-.292.346-.39.55l-1.192 2.49 2.489-1.192c.204-.098.392-.23.552-.39l6.976-6.976a1.03 1.03 0 0 0 0-1.46">
    </path>
</svg>